# Blender v3.0.1 OBJ File: ''
# www.blender.org
mtllib grass.mtl
o Plane_Plane.004
v -0.024059 -0.038411 -0.000000
v 0.024269 -0.038411 -0.000000
v -0.024059 0.156557 0.000000
v 0.024269 0.156557 0.000000
v -0.013333 0.182809 0.004494
v 0.014448 0.182809 0.004494
v 0.000105 -0.038411 0.014871
v 0.000105 0.156557 0.014871
v 0.000558 0.222294 0.010404
v -0.023632 -0.038411 -0.003604
v 0.023842 -0.038411 -0.003604
v -0.023631 0.156365 -0.003601
v 0.023843 0.156392 -0.003603
v -0.012903 0.182103 0.000919
v 0.014026 0.182229 0.000905
v 0.000105 -0.038411 0.011138
v 0.000110 0.156225 0.011144
v 0.000550 0.221630 0.006694
vt 0.500000 0.000000
vt 1.000000 0.000000
vt 1.000000 1.000000
vt 0.500000 1.000000
vt 1.000000 1.000000
vt 0.500000 1.000000
vt 0.000000 1.000000
vt 0.000000 1.000000
vt 0.000000 0.000000
vt 0.500000 0.000000
vt 0.500000 1.000000
vt 1.000000 1.000000
vt 1.000000 0.000000
vt 0.500000 1.000000
vt 1.000000 1.000000
vt 0.000000 1.000000
vt 0.000000 1.000000
vt 0.000000 0.000000
vn 0.5241 -0.0000 0.8516
vn 0.5202 0.0527 0.8524
vn -0.5286 0.0640 0.8464
vn -0.5241 -0.0000 0.8516
vn -0.5277 0.0000 -0.8494
vn -0.5251 -0.0534 -0.8494
vn 0.5337 -0.0648 -0.8432
vn 0.5276 0.0000 -0.8495
vn -0.9930 0.0000 -0.1179
vn 0.0000 -1.0000 0.0000
vn 0.9931 -0.0000 -0.1176
vn -0.9329 0.3403 -0.1182
vn 0.9170 0.3710 -0.1465
vn -0.9028 0.4000 -0.1580
vn 0.9334 0.3405 -0.1129
usemtl None
s off
f 7/1/1 2/2/1 4/3/1 8/4/1
f 8/4/2 4/3/2 6/5/2 9/6/2
f 3/7/3 8/4/3 9/6/3 5/8/3
f 1/9/4 7/1/4 8/4/4 3/7/4
f 16/10/5 17/11/5 13/12/5 11/13/5
f 17/11/6 18/14/6 15/15/6 13/12/6
f 12/16/7 14/17/7 18/14/7 17/11/7
f 10/18/8 12/16/8 17/11/8 16/10/8
f 1/9/9 3/7/9 12/16/9 10/18/9
f 2/2/10 7/1/10 16/10/10 11/13/10
f 4/3/11 2/2/11 11/13/11 13/12/11
f 5/8/12 9/6/12 18/14/12 14/17/12
f 6/5/13 4/3/13 13/12/13 15/15/13
f 3/7/14 5/8/14 14/17/14 12/16/14
f 7/1/10 1/9/10 10/18/10 16/10/10
f 9/6/15 6/5/15 15/15/15 18/14/15
