# Blender v3.0.1 OBJ File: ''
# www.blender.org
mtllib light.mtl
o Cylinder_Cylinder.001
v -0.000000 7.489718 -0.798473
v 0.000000 9.489718 -1.000000
v 0.155774 7.489718 -0.783131
v 0.195090 9.489718 -0.980785
v 0.305563 7.489718 -0.737693
v 0.382683 9.489718 -0.923880
v 0.443608 7.489718 -0.663906
v 0.555570 9.489718 -0.831470
v 0.564606 7.489718 -0.564606
v 0.707107 9.489718 -0.707107
v 0.663906 7.489718 -0.443608
v 0.831470 9.489718 -0.555570
v 0.737693 7.489718 -0.305563
v 0.923880 9.489718 -0.382683
v 0.783131 7.489718 -0.155774
v 0.980785 9.489718 -0.195090
v 0.798473 7.489718 0.000000
v 1.000000 9.489718 0.000000
v 0.783131 7.489718 0.155774
v 0.980785 9.489718 0.195090
v 0.737693 7.489718 0.305562
v 0.923880 9.489718 0.382683
v 0.663906 7.489718 0.443608
v 0.831470 9.489718 0.555570
v 0.564606 7.489718 0.564606
v 0.707107 9.489718 0.707107
v 0.443608 7.489718 0.663906
v 0.555570 9.489718 0.831470
v 0.305563 7.489718 0.737693
v 0.382683 9.489718 0.923880
v 0.155774 7.489718 0.783131
v 0.195090 9.489718 0.980785
v -0.000000 7.489718 0.798473
v -0.000000 9.489718 1.000000
v -0.155774 7.489718 0.783131
v -0.195090 9.489718 0.980785
v -0.305562 7.489718 0.737693
v -0.382683 9.489718 0.923880
v -0.443608 7.489718 0.663906
v -0.555570 9.489718 0.831470
v -0.564606 7.489718 0.564606
v -0.707107 9.489718 0.707107
v -0.663906 7.489718 0.443608
v -0.831469 9.489718 0.555570
v -0.737693 7.489718 0.305563
v -0.923880 9.489718 0.382684
v -0.783131 7.489718 0.155774
v -0.980785 9.489718 0.195090
v -0.798473 7.489718 -0.000000
v -1.000000 9.489718 -0.000000
v -0.783131 7.489718 -0.155774
v -0.980785 9.489718 -0.195090
v -0.737693 7.489718 -0.305563
v -0.923879 9.489718 -0.382684
v -0.663906 7.489718 -0.443608
v -0.831470 9.489718 -0.555570
v -0.564606 7.489718 -0.564606
v -0.707107 9.489718 -0.707107
v -0.443608 7.489718 -0.663906
v -0.555570 9.489718 -0.831470
v -0.305563 7.489718 -0.737693
v -0.382683 9.489718 -0.923880
v -0.155774 7.489718 -0.783131
v -0.195090 9.489718 -0.980785
v 0.000000 7.489718 -1.000000
v 0.195090 7.489718 -0.980785
v 0.382683 7.489718 -0.923880
v 0.555570 7.489718 -0.831470
v 0.707107 7.489718 -0.707107
v 0.831470 7.489718 -0.555570
v 0.923880 7.489718 -0.382683
v 0.980785 7.489718 -0.195090
v 1.000000 7.489718 0.000000
v 0.980785 7.489718 0.195090
v 0.923880 7.489718 0.382683
v 0.831470 7.489718 0.555570
v 0.707107 7.489718 0.707107
v 0.555570 7.489718 0.831470
v 0.382683 7.489718 0.923880
v 0.195090 7.489718 0.980785
v -0.000000 7.489718 1.000000
v -0.195090 7.489718 0.980785
v -0.382683 7.489718 0.923880
v -0.555570 7.489718 0.831470
v -0.707107 7.489718 0.707107
v -0.831469 7.489718 0.555570
v -0.923880 7.489718 0.382684
v -0.980785 7.489718 0.195090
v -1.000000 7.489718 -0.000000
v -0.980785 7.489718 -0.195090
v -0.923879 7.489718 -0.382684
v -0.831470 7.489718 -0.555570
v -0.707107 7.489718 -0.707107
v -0.555570 7.489718 -0.831470
v -0.382683 7.489718 -0.923880
v -0.195090 7.489718 -0.980785
v -0.000000 8.706613 -0.798473
v 0.155774 8.706613 -0.783131
v 0.305562 8.706613 -0.737693
v 0.443608 8.706613 -0.663906
v 0.564606 8.706613 -0.564606
v 0.663906 8.706613 -0.443608
v 0.737693 8.706613 -0.305563
v 0.783131 8.706613 -0.155774
v 0.798473 8.706613 0.000000
v 0.783131 8.706613 0.155774
v 0.737693 8.706613 0.305562
v 0.663906 8.706613 0.443608
v 0.564606 8.706613 0.564606
v 0.443608 8.706613 0.663906
v 0.305562 8.706613 0.737693
v 0.155774 8.706613 0.783131
v -0.000000 8.706613 0.798473
v -0.155774 8.706613 0.783131
v -0.305563 8.706613 0.737693
v -0.443608 8.706613 0.663906
v -0.564606 8.706613 0.564606
v -0.663906 8.706613 0.443608
v -0.737693 8.706613 0.305563
v -0.783131 8.706613 0.155774
v -0.798473 8.706613 -0.000000
v -0.783131 8.706613 -0.155774
v -0.737693 8.706613 -0.305563
v -0.663907 8.706613 -0.443608
v -0.564606 8.706613 -0.564606
v -0.443608 8.706613 -0.663906
v -0.305563 8.706613 -0.737693
v -0.155774 8.706613 -0.783131
vt 1.000000 0.500000
vt 1.000000 1.000000
vt 0.968750 1.000000
vt 0.968750 0.500000
vt 0.937500 1.000000
vt 0.937500 0.500000
vt 0.906250 1.000000
vt 0.906250 0.500000
vt 0.875000 1.000000
vt 0.875000 0.500000
vt 0.843750 1.000000
vt 0.843750 0.500000
vt 0.812500 1.000000
vt 0.812500 0.500000
vt 0.781250 1.000000
vt 0.781250 0.500000
vt 0.750000 1.000000
vt 0.750000 0.500000
vt 0.718750 1.000000
vt 0.718750 0.500000
vt 0.687500 1.000000
vt 0.687500 0.500000
vt 0.656250 1.000000
vt 0.656250 0.500000
vt 0.625000 1.000000
vt 0.625000 0.500000
vt 0.593750 1.000000
vt 0.593750 0.500000
vt 0.562500 1.000000
vt 0.562500 0.500000
vt 0.531250 1.000000
vt 0.531250 0.500000
vt 0.500000 1.000000
vt 0.500000 0.500000
vt 0.468750 1.000000
vt 0.468750 0.500000
vt 0.437500 1.000000
vt 0.437500 0.500000
vt 0.406250 1.000000
vt 0.406250 0.500000
vt 0.375000 1.000000
vt 0.375000 0.500000
vt 0.343750 1.000000
vt 0.343750 0.500000
vt 0.312500 1.000000
vt 0.312500 0.500000
vt 0.281250 1.000000
vt 0.281250 0.500000
vt 0.250000 1.000000
vt 0.250000 0.500000
vt 0.218750 1.000000
vt 0.218750 0.500000
vt 0.187500 1.000000
vt 0.187500 0.500000
vt 0.156250 1.000000
vt 0.156250 0.500000
vt 0.125000 1.000000
vt 0.125000 0.500000
vt 0.093750 1.000000
vt 0.093750 0.500000
vt 0.062500 1.000000
vt 0.062500 0.500000
vt 0.296822 0.485388
vt 0.250000 0.490000
vt 0.203178 0.485388
vt 0.158156 0.471731
vt 0.116663 0.449553
vt 0.080294 0.419706
vt 0.050447 0.383337
vt 0.028269 0.341844
vt 0.014612 0.296822
vt 0.010000 0.250000
vt 0.014612 0.203178
vt 0.028269 0.158156
vt 0.050447 0.116663
vt 0.080294 0.080294
vt 0.116663 0.050447
vt 0.158156 0.028269
vt 0.203178 0.014612
vt 0.250000 0.010000
vt 0.296822 0.014612
vt 0.341844 0.028269
vt 0.383337 0.050447
vt 0.419706 0.080294
vt 0.449553 0.116663
vt 0.471731 0.158156
vt 0.485388 0.203178
vt 0.490000 0.250000
vt 0.485388 0.296822
vt 0.471731 0.341844
vt 0.449553 0.383337
vt 0.419706 0.419706
vt 0.383337 0.449553
vt 0.341844 0.471731
vt 0.031250 1.000000
vt 0.031250 0.500000
vt 0.000000 1.000000
vt 0.000000 0.500000
vt 0.909338 0.143534
vt 0.885506 0.114495
vt 0.885506 0.114495
vt 0.909338 0.143534
vt 0.787386 0.437951
vt 0.750000 0.441633
vt 0.750000 0.490000
vt 0.796822 0.485388
vt 0.823335 0.427046
vt 0.841844 0.471731
vt 0.856466 0.409337
vt 0.883337 0.449553
vt 0.885506 0.385506
vt 0.919706 0.419706
vt 0.909337 0.356466
vt 0.949553 0.383337
vt 0.927047 0.323335
vt 0.971731 0.341844
vt 0.937951 0.287386
vt 0.985388 0.296822
vt 0.941634 0.250000
vt 0.990000 0.250000
vt 0.937951 0.212614
vt 0.985388 0.203178
vt 0.927046 0.176665
vt 0.971731 0.158156
vt 0.949553 0.116663
vt 0.919706 0.080294
vt 0.856466 0.090662
vt 0.883337 0.050447
vt 0.823335 0.072954
vt 0.841844 0.028269
vt 0.787386 0.062049
vt 0.796822 0.014612
vt 0.750000 0.058366
vt 0.750000 0.010000
vt 0.712614 0.062049
vt 0.703178 0.014612
vt 0.676665 0.072954
vt 0.658156 0.028269
vt 0.643534 0.090663
vt 0.616663 0.050447
vt 0.614495 0.114495
vt 0.580294 0.080294
vt 0.590662 0.143534
vt 0.550447 0.116663
vt 0.572954 0.176665
vt 0.528269 0.158156
vt 0.562049 0.212614
vt 0.514612 0.203178
vt 0.558366 0.250000
vt 0.510000 0.250000
vt 0.562048 0.287386
vt 0.514612 0.296822
vt 0.572954 0.323335
vt 0.528269 0.341844
vt 0.590662 0.356466
vt 0.550447 0.383337
vt 0.614495 0.385505
vt 0.580294 0.419706
vt 0.643534 0.409338
vt 0.616663 0.449553
vt 0.676665 0.427046
vt 0.658156 0.471731
vt 0.712614 0.437951
vt 0.703178 0.485388
vt 0.750000 0.441633
vt 0.787386 0.437951
vt 0.823335 0.427046
vt 0.856466 0.409337
vt 0.885506 0.385506
vt 0.909337 0.356466
vt 0.927047 0.323335
vt 0.937951 0.287386
vt 0.941634 0.250000
vt 0.937951 0.212614
vt 0.927046 0.176665
vt 0.856466 0.090662
vt 0.823335 0.072954
vt 0.787386 0.062049
vt 0.750000 0.058366
vt 0.712614 0.062049
vt 0.676665 0.072954
vt 0.643534 0.090663
vt 0.614495 0.114495
vt 0.590662 0.143534
vt 0.572954 0.176665
vt 0.562049 0.212614
vt 0.558366 0.250000
vt 0.562048 0.287386
vt 0.572954 0.323335
vt 0.590662 0.356466
vt 0.614495 0.385505
vt 0.643534 0.409338
vt 0.676665 0.427046
vt 0.712614 0.437951
vn 0.0980 0.0000 -0.9952
vn 0.2903 0.0000 -0.9569
vn 0.4714 0.0000 -0.8819
vn 0.6344 0.0000 -0.7730
vn 0.7730 0.0000 -0.6344
vn 0.8819 0.0000 -0.4714
vn 0.9569 0.0000 -0.2903
vn 0.9952 0.0000 -0.0980
vn 0.9952 0.0000 0.0980
vn 0.9569 0.0000 0.2903
vn 0.8819 0.0000 0.4714
vn 0.7730 0.0000 0.6344
vn 0.6344 0.0000 0.7730
vn 0.4714 0.0000 0.8819
vn 0.2903 0.0000 0.9569
vn 0.0980 0.0000 0.9952
vn -0.0980 0.0000 0.9952
vn -0.2903 0.0000 0.9569
vn -0.4714 0.0000 0.8819
vn -0.6344 0.0000 0.7730
vn -0.7730 0.0000 0.6344
vn -0.8819 0.0000 0.4714
vn -0.9569 0.0000 0.2903
vn -0.9952 0.0000 0.0980
vn -0.9952 0.0000 -0.0980
vn -0.9569 0.0000 -0.2903
vn -0.8819 0.0000 -0.4714
vn -0.7730 0.0000 -0.6344
vn -0.6344 0.0000 -0.7730
vn -0.4714 0.0000 -0.8819
vn 0.0000 1.0000 -0.0000
vn -0.2903 0.0000 -0.9569
vn -0.0980 0.0000 -0.9952
vn 0.0000 -1.0000 -0.0000
usemtl None
s off
f 65/1/1 2/2/1 4/3/1 66/4/1
f 66/4/2 4/3/2 6/5/2 67/6/2
f 67/6/3 6/5/3 8/7/3 68/8/3
f 68/8/4 8/7/4 10/9/4 69/10/4
f 69/10/5 10/9/5 12/11/5 70/12/5
f 70/12/6 12/11/6 14/13/6 71/14/6
f 71/14/7 14/13/7 16/15/7 72/16/7
f 72/16/8 16/15/8 18/17/8 73/18/8
f 73/18/9 18/17/9 20/19/9 74/20/9
f 74/20/10 20/19/10 22/21/10 75/22/10
f 75/22/11 22/21/11 24/23/11 76/24/11
f 76/24/12 24/23/12 26/25/12 77/26/12
f 77/26/13 26/25/13 28/27/13 78/28/13
f 78/28/14 28/27/14 30/29/14 79/30/14
f 79/30/15 30/29/15 32/31/15 80/32/15
f 80/32/16 32/31/16 34/33/16 81/34/16
f 81/34/17 34/33/17 36/35/17 82/36/17
f 82/36/18 36/35/18 38/37/18 83/38/18
f 83/38/19 38/37/19 40/39/19 84/40/19
f 84/40/20 40/39/20 42/41/20 85/42/20
f 85/42/21 42/41/21 44/43/21 86/44/21
f 86/44/22 44/43/22 46/45/22 87/46/22
f 87/46/23 46/45/23 48/47/23 88/48/23
f 88/48/24 48/47/24 50/49/24 89/50/24
f 89/50/25 50/49/25 52/51/25 90/52/25
f 90/52/26 52/51/26 54/53/26 91/54/26
f 91/54/27 54/53/27 56/55/27 92/56/27
f 92/56/28 56/55/28 58/57/28 93/58/28
f 93/58/29 58/57/29 60/59/29 94/60/29
f 94/60/30 60/59/30 62/61/30 95/62/30
f 4/63/31 2/64/31 64/65/31 62/66/31 60/67/31 58/68/31 56/69/31 54/70/31 52/71/31 50/72/31 48/73/31 46/74/31 44/75/31 42/76/31 40/77/31 38/78/31 36/79/31 34/80/31 32/81/31 30/82/31 28/83/31 26/84/31 24/85/31 22/86/31 20/87/31 18/88/31 16/89/31 14/90/31 12/91/31 10/92/31 8/93/31 6/94/31
f 95/62/32 62/61/32 64/95/32 96/96/32
f 96/96/33 64/95/33 2/97/33 65/98/33
f 23/99/28 25/100/28 109/101/28 108/102/28
f 3/103/34 1/104/34 65/105/34 66/106/34
f 5/107/34 3/103/34 66/106/34 67/108/34
f 7/109/34 5/107/34 67/108/34 68/110/34
f 9/111/34 7/109/34 68/110/34 69/112/34
f 11/113/34 9/111/34 69/112/34 70/114/34
f 13/115/34 11/113/34 70/114/34 71/116/34
f 15/117/34 13/115/34 71/116/34 72/118/34
f 17/119/34 15/117/34 72/118/34 73/120/34
f 19/121/34 17/119/34 73/120/34 74/122/34
f 21/123/34 19/121/34 74/122/34 75/124/34
f 23/99/34 21/123/34 75/124/34 76/125/34
f 25/100/34 23/99/34 76/125/34 77/126/34
f 27/127/34 25/100/34 77/126/34 78/128/34
f 29/129/34 27/127/34 78/128/34 79/130/34
f 31/131/34 29/129/34 79/130/34 80/132/34
f 33/133/34 31/131/34 80/132/34 81/134/34
f 35/135/34 33/133/34 81/134/34 82/136/34
f 37/137/34 35/135/34 82/136/34 83/138/34
f 39/139/34 37/137/34 83/138/34 84/140/34
f 41/141/34 39/139/34 84/140/34 85/142/34
f 43/143/34 41/141/34 85/142/34 86/144/34
f 45/145/34 43/143/34 86/144/34 87/146/34
f 47/147/34 45/145/34 87/146/34 88/148/34
f 49/149/34 47/147/34 88/148/34 89/150/34
f 51/151/34 49/149/34 89/150/34 90/152/34
f 53/153/34 51/151/34 90/152/34 91/154/34
f 55/155/34 53/153/34 91/154/34 92/156/34
f 57/157/34 55/155/34 92/156/34 93/158/34
f 59/159/34 57/157/34 93/158/34 94/160/34
f 61/161/34 59/159/34 94/160/34 95/162/34
f 63/163/34 61/161/34 95/162/34 96/164/34
f 1/104/34 63/163/34 96/164/34 65/105/34
f 97/165/34 98/166/34 99/167/34 100/168/34 101/169/34 102/170/34 103/171/34 104/172/34 105/173/34 106/174/34 107/175/34 108/102/34 109/101/34 110/176/34 111/177/34 112/178/34 113/179/34 114/180/34 115/181/34 116/182/34 117/183/34 118/184/34 119/185/34 120/186/34 121/187/34 122/188/34 123/189/34 124/190/34 125/191/34 126/192/34 127/193/34 128/194/34
f 51/151/10 53/153/10 123/189/10 122/188/10
f 25/100/29 27/127/29 110/176/29 109/101/29
f 53/153/11 55/155/11 124/190/11 123/189/11
f 27/127/30 29/129/30 111/177/30 110/176/30
f 1/104/17 3/103/17 98/166/17 97/165/17
f 55/155/12 57/157/12 125/191/12 124/190/12
f 29/129/32 31/131/32 112/178/32 111/177/32
f 3/103/18 5/107/18 99/167/18 98/166/18
f 57/157/13 59/159/13 126/192/13 125/191/13
f 31/131/33 33/133/33 113/179/33 112/178/33
f 5/107/19 7/109/19 100/168/19 99/167/19
f 59/159/14 61/161/14 127/193/14 126/192/14
f 33/133/1 35/135/1 114/180/1 113/179/1
f 7/109/20 9/111/20 101/169/20 100/168/20
f 61/161/15 63/163/15 128/194/15 127/193/15
f 35/135/2 37/137/2 115/181/2 114/180/2
f 9/111/21 11/113/21 102/170/21 101/169/21
f 63/163/16 1/104/16 97/165/16 128/194/16
f 37/137/3 39/139/3 116/182/3 115/181/3
f 11/113/22 13/115/22 103/171/22 102/170/22
f 39/139/4 41/141/4 117/183/4 116/182/4
f 13/115/23 15/117/23 104/172/23 103/171/23
f 41/141/5 43/143/5 118/184/5 117/183/5
f 15/117/24 17/119/24 105/173/24 104/172/24
f 43/143/6 45/145/6 119/185/6 118/184/6
f 17/119/25 19/121/25 106/174/25 105/173/25
f 45/145/7 47/147/7 120/186/7 119/185/7
f 19/121/26 21/123/26 107/175/26 106/174/26
f 47/147/8 49/149/8 121/187/8 120/186/8
f 21/123/27 23/99/27 108/102/27 107/175/27
f 49/149/9 51/151/9 122/188/9 121/187/9
