# Blender v3.0.1 OBJ File: 'room.blend'
# www.blender.org
mtllib room.mtl
o Plane_Plane.005
v -7.542071 2.368403 5.792529
v 7.542071 0.618861 7.542071
v -7.542071 2.368403 -5.792529
v 7.542071 0.618861 -7.542071
v -7.542071 6.542635 5.792529
v 7.542071 8.292176 7.542071
v -7.542071 6.542635 -5.792529
v 7.542071 8.292176 -7.542071
v -7.542071 0.618861 -7.542071
v -7.542071 0.618861 7.542071
v -7.542071 8.292176 -7.542071
v -7.542071 8.292176 7.542071
v -7.542071 2.368403 -5.792529
v -7.542071 2.368403 5.792529
v -7.542071 6.542635 -5.792529
v -7.542071 6.542635 5.792529
v -7.479319 2.326569 5.792529
v 7.498527 0.662405 7.498527
v -7.479319 2.326569 -5.792529
v 7.498527 0.662405 -7.498527
v -7.479319 6.500801 5.792529
v 7.498527 8.248632 7.498527
v -7.479319 6.500801 -5.792529
v 7.498527 8.248632 -7.498527
v -7.498527 0.662405 -7.498527
v -7.498527 0.662405 7.498527
v -7.498527 8.248632 -7.498527
v -7.498527 8.248632 7.498527
v -7.542071 2.292982 -5.792529
v -7.542071 2.292982 5.792529
v -7.542071 6.467214 -5.792529
v -7.542071 6.467214 5.792529
vt 0.000000 0.000000
vt 0.000000 1.000000
vt 1.000000 1.000000
vt 1.000000 0.000000
vt 0.000000 0.000000
vt 1.000000 0.000000
vt 1.000000 1.000000
vt 0.000000 1.000000
vt 0.000000 0.115986
vt 0.000000 0.115986
vt 0.000000 0.115986
vt 0.000000 0.115986
vt 0.000000 0.884014
vt 0.000000 0.884014
vt 0.000000 0.884014
vt 0.000000 0.884014
vt 0.000000 0.000000
vt 1.000000 0.000000
vt 1.000000 1.000000
vt 0.000000 1.000000
vt 0.000000 0.000000
vt 0.000000 1.000000
vt 1.000000 1.000000
vt 1.000000 0.000000
vt 0.000000 0.115986
vt 0.000000 0.115986
vt 0.000000 0.115986
vt 0.000000 0.115986
vt 0.000000 0.884014
vt 0.000000 0.884014
vt 0.000000 0.884014
vt 0.000000 0.884014
vn 0.0000 -1.0000 0.0000
vn 0.0000 1.0000 0.0000
vn 0.0000 0.0000 -1.0000
vn 0.0000 0.0000 1.0000
vn 1.0000 0.0000 0.0000
vn -1.0000 0.0000 0.0000
vn 0.9999 -0.0115 0.0000
vn 0.9999 0.0110 0.0000
vn 0.9999 0.0000 -0.0113
vn 0.9999 0.0000 0.0113
vn 0.4719 -0.8817 0.0000
vn -0.4719 0.8817 0.0000
usemtl None
s off
f 10/1/1 9/2/1 4/3/1 2/4/1
f 12/5/2 6/6/2 8/7/2 11/8/2
f 4/3/3 9/2/3 11/8/3 8/7/3
f 10/1/4 2/4/4 6/6/4 12/5/4
f 2/4/5 4/3/5 8/7/5 6/6/5
f 1/9/4 5/10/4 16/11/4 14/12/4
f 1/9/6 3/13/6 9/2/6 10/1/6
f 7/14/6 5/10/6 12/5/6 11/8/6
f 3/13/6 7/14/6 11/8/6 9/2/6
f 5/10/6 1/9/6 10/1/6 12/5/6
f 5/10/4 7/14/4 15/15/4 16/11/4
f 7/14/4 3/13/4 13/16/4 15/15/4
f 3/13/4 1/9/4 14/12/4 13/16/4
f 26/17/2 18/18/2 20/19/2 25/20/2
f 28/21/1 27/22/1 24/23/1 22/24/1
f 20/19/4 24/23/4 27/22/4 25/20/4
f 26/17/3 28/21/3 22/24/3 18/18/3
f 18/18/6 22/24/6 24/23/6 20/19/6
f 17/25/3 30/26/3 32/27/3 21/28/3
f 17/25/7 26/17/7 25/20/7 19/29/7
f 23/30/8 27/22/8 28/21/8 21/28/8
f 19/29/9 25/20/9 27/22/9 23/30/9
f 21/28/10 28/21/10 26/17/10 17/25/10
f 21/28/11 32/27/11 31/31/11 23/30/11
f 23/30/4 31/31/4 29/32/4 19/29/4
f 19/29/12 29/32/12 30/26/12 17/25/12
f 13/16/5 14/12/5 30/26/5 29/32/5
f 16/11/6 15/15/6 31/31/6 32/27/6
f 15/15/4 13/16/4 29/32/4 31/31/4
f 14/12/4 16/11/4 32/27/4 30/26/4
