# Blender v3.0.1 OBJ File: ''
# www.blender.org
mtllib table.mtl
o Plane.001_Plane.006
v -2.838286 2.223435 2.838286
v 2.838286 2.223435 2.838286
v -2.838286 2.223435 -2.838286
v 2.838286 2.223435 -2.838286
v -2.838286 1.882841 2.838286
v 2.838286 1.882841 2.838286
v -2.838286 1.882841 -2.838286
v 2.838286 1.882841 -2.838286
vt 0.000000 0.000000
vt 1.000000 0.000000
vt 1.000000 1.000000
vt 0.000000 1.000000
vt 0.000000 0.000000
vt 0.000000 1.000000
vt 1.000000 1.000000
vt 1.000000 0.000000
vn 0.0000 1.0000 0.0000
vn 0.0000 -1.0000 0.0000
vn -1.0000 0.0000 0.0000
vn 0.0000 0.0000 1.0000
vn 1.0000 0.0000 0.0000
vn 0.0000 0.0000 -1.0000
usemtl None
s off
f 1/1/1 2/2/1 4/3/1 3/4/1
f 5/5/2 7/6/2 8/7/2 6/8/2
f 1/1/3 3/4/3 7/6/3 5/5/3
f 2/2/4 1/1/4 5/5/4 6/8/4
f 4/3/5 2/2/5 6/8/5 8/7/5
f 3/4/6 4/3/6 8/7/6 7/6/6
